<?xml version="1.0" encoding="UTF-8" standalone="no"?>
<!-- Created with Inkscape (http://www.inkscape.org/) -->

<svg
   width="252.50983mm"
   height="252.50983mm"
   viewBox="0 0 252.50982 252.50983"
   version="1.1"
   id="svg5"
   inkscape:version="1.2.1 (9c6d41e, 2022-07-14)"
   sodipodi:docname="BUMPS-11DEC2022-LOGO.svg"
   inkscape:export-filename="/Users/ken/BUMPS.WORLD/bumps-logo/bumps-app-logo(Left)-Word.png"
   inkscape:export-xdpi="219.99675"
   inkscape:export-ydpi="219.99675"
   xml:space="preserve"
   xmlns:inkscape="http://www.inkscape.org/namespaces/inkscape"
   xmlns:sodipodi="http://sodipodi.sourceforge.net/DTD/sodipodi-0.dtd"
   xmlns="http://www.w3.org/2000/svg"
   xmlns:svg="http://www.w3.org/2000/svg"><sodipodi:namedview
     id="namedview7"
     pagecolor="#ffffff"
     bordercolor="#ffffff"
     borderopacity="0.74901961"
     inkscape:pageshadow="2"
     inkscape:pageopacity="0"
     inkscape:pagecheckerboard="true"
     inkscape:document-units="mm"
     showgrid="false"
     inkscape:snap-global="false"
     inkscape:zoom="0.18"
     inkscape:cx="2000"
     inkscape:cy="580.55556"
     inkscape:window-width="1440"
     inkscape:window-height="731"
     inkscape:window-x="0"
     inkscape:window-y="25"
     inkscape:window-maximized="0"
     inkscape:current-layer="layer1"
     fit-margin-top="0"
     fit-margin-left="0"
     fit-margin-right="0"
     fit-margin-bottom="0"
     showguides="false"
     inkscape:guide-bbox="true"
     inkscape:showpageshadow="2"
     inkscape:deskcolor="#d1d1d1"
     showborder="false"><sodipodi:guide
       position="-772.86184,61.035029"
       orientation="0,954.36785"
       id="guide1461"
       inkscape:locked="false" /><sodipodi:guide
       position="-520.352,61.035029"
       orientation="954.36785,0"
       id="guide1463"
       inkscape:locked="false" /><sodipodi:guide
       position="-520.352,-191.47481"
       orientation="0,-954.36785"
       id="guide1465"
       inkscape:locked="false" /><sodipodi:guide
       position="-772.86184,-191.47481"
       orientation="-954.36785,0"
       id="guide1467"
       inkscape:locked="false" /></sodipodi:namedview><defs
     id="defs2"><rect
       x="1982.2606"
       y="-1015.5834"
       width="58.271179"
       height="66.595634"
       id="rect5678" /><rect
       x="2243.4404"
       y="-1010.3806"
       width="61.392849"
       height="61.392849"
       id="rect3624" /></defs><g
     inkscape:label="Layer 1"
     inkscape:groupmode="layer"
     id="layer1"
     transform="translate(-4676.2126,-1733.4903)"><text
       xml:space="preserve"
       style="font-style:normal;font-variant:normal;font-weight:normal;font-stretch:normal;font-size:10.5833px;line-height:1.25;font-family:'Seymour One';-inkscape-font-specification:'Seymour One';word-spacing:0px;stroke-width:0.424519"
       x="409.67862"
       y="22.137629"
       id="text1779"><tspan
         sodipodi:role="line"
         id="tspan1777"
         style="font-style:normal;font-variant:normal;font-weight:normal;font-stretch:normal;font-family:'Seymour One';-inkscape-font-specification:'Seymour One';stroke-width:0.424519"
         x="409.67862"
         y="22.137629" /></text><text
       xml:space="preserve"
       style="font-style:normal;font-variant:normal;font-weight:normal;font-stretch:normal;font-size:10.5833px;line-height:1.25;font-family:'Dela Gothic One';-inkscape-font-specification:'Dela Gothic One';word-spacing:0px;stroke-width:0.424519"
       x="279.03229"
       y="29.226929"
       id="text10367"><tspan
         sodipodi:role="line"
         id="tspan10365"
         style="font-style:normal;font-variant:normal;font-weight:normal;font-stretch:normal;font-family:'Dela Gothic One';-inkscape-font-specification:'Dela Gothic One';stroke-width:0.424519"
         x="279.03229"
         y="29.226929" /></text><g
       aria-label="BUMPS"
       transform="matrix(0.98256274,-0.00900085,0.00836104,0.9659355,105.27679,0.77964097)"
       id="text363-7-7"
       style="font-size:64.179px;line-height:1.25;stroke-width:1.60448" /><text
       xml:space="preserve"
       style="font-style:normal;font-weight:normal;font-size:12.4762px;line-height:1.25;font-family:sans-serif;fill:#000000;fill-opacity:1;stroke:none;stroke-width:0.311908"
       x="165.67851"
       y="664.48688"
       id="text1258-1-82-4-6"
       transform="scale(1.314026,0.76101994)"><tspan
         id="tspan1256-5-5-5-6"
         style="font-style:italic;font-variant:normal;font-weight:bold;font-stretch:normal;font-family:'Roboto Condensed';-inkscape-font-specification:'Roboto Condensed,  Bold Italic';stroke-width:0.311908"
         x="165.67851"
         y="664.48688"
         sodipodi:role="line" /></text><text
       xml:space="preserve"
       transform="matrix(0.26458333,0,0,0.26458333,317.51725,687.5223)"
       id="text3622"
       style="font-size:40px;line-height:1.25;font-family:sans-serif;word-spacing:0px;white-space:pre;shape-inside:url(#rect3624);display:inline" /><text
       xml:space="preserve"
       transform="matrix(0.26458333,0,0,0.26458333,317.51725,687.5223)"
       id="text5676"
       style="font-size:40px;line-height:1.25;font-family:sans-serif;word-spacing:0px;white-space:pre;shape-inside:url(#rect5678);display:inline" /><g
       aria-label="BUMPS"
       id="text37572"
       style="font-size:22.0645px;line-height:1.25;letter-spacing:2.35215px;word-spacing:0px;fill:#333333;stroke-width:0.271563"
       transform="translate(293.52842,-187.63352)" /><g
       aria-label="1966"
       transform="scale(0.94847333,1.0543259)"
       id="text47319-4-2"
       style="font-size:14.8505px;line-height:1.25;word-spacing:0px;fill:#ffffff;stroke-width:0.371262"
       inkscape:export-filename="/Users/ken/Documents/BUMPS/bumps/bumps-logo/a-printing/BUMPS-Circle-BornToPlay-Black.png"
       inkscape:export-xdpi="600.20001"
       inkscape:export-ydpi="600.20001" /><circle
       style="fill:none;fill-opacity:1;stroke:#000000;stroke-width:7.50636;stroke-linecap:round;stroke-miterlimit:4;stroke-dasharray:none"
       id="circle807-3-0-5-7-7-1-1-7-3-9-9-9-9-4-4-0-8-4-39"
       cx="5090.5146"
       cy="780.38898"
       transform="rotate(12.453053)"
       r="122.4798"
       inkscape:export-filename="nov2022.png"
       inkscape:export-xdpi="500.60001"
       inkscape:export-ydpi="500.60001" /><path
       style="fill:#ffffff;stroke:#000000;stroke-width:2.97824;stroke-linecap:round;stroke-miterlimit:4;stroke-dasharray:none;paint-order:markers fill stroke"
       d="m 4735.5395,1892.484 c -9.8547,-2.7064 -19.0184,-9.3903 -32.0246,-23.3594 -6.7384,-7.237 -14.0258,-14.6057 -16.194,-16.375 -3.6284,-2.9608 -3.8822,-3.6921 -3.1835,-9.1679 6.3104,-49.4527 42.0288,-87.8756 93.1626,-100.2171 11.8086,-2.85 38.3198,-2.8318 50.3942,0.035 51.692,12.2722 87.4146,51.4953 93.3401,102.4877 l 0.9594,8.2564 -14.2324,-13.3824 c -15.5682,-14.6385 -22.0627,-18.9072 -33.7984,-22.216 -14.1554,-3.9907 -26.6967,-0.5572 -42.8528,11.7311 -8.7515,6.6566 -14.2511,12.8612 -27.3425,30.8478 -12.5179,17.1987 -19.061,23.4313 -29.6383,28.2314 -7.2031,3.269 -10.5254,3.9708 -20.5646,4.3447 -7.3133,0.2719 -14.3291,-0.2013 -18.0252,-1.2163 z"
       id="path2886-3-6-2-3-05" /><g
       id="g1963-9-8-0-7"
       transform="matrix(0.30263643,0,0,0.40956285,3401.5622,489.50254)"><path
         d="m 4507.5581,3194.3553 c -13.6635,-0.5724 -24.2529,-16.0319 -18.6506,-30.8952 3.531,-9.359 8.6041,-17.1443 18.3544,-19.79 5.5632,-1.5737 9.3758,-1.7915 12.4395,-1.0646 14.7056,4.0771 21.5972,25.3783 10.7492,39.5896 -3.515,4.6386 -6.5094,8.6808 -12.7589,10.491 -3.8539,0.9148 -8.4751,1.6948 -10.1315,1.6544"
         style="mix-blend-mode:normal;fill:#000000;fill-opacity:1;fill-rule:nonzero;stroke:none;stroke-width:10.3302"
         id="path1959-5-3-5-3"
         inkscape:connector-curvature="0"
         sodipodi:nodetypes="ccccccc" /><path
         d="m 4403.319,3353.9378 c -2.7082,-1.6617 -12.2937,-8.565 -21.1551,-15.5482 -8.8614,-6.9786 -17.722,-13.0896 -19.5222,-13.4315 -3.0636,-0.7393 -4.8559,-0.2034 -11.681,3.4523 -6.6404,3.4659 -5.5744,4.3612 -8.6877,3.7982 -1.5397,-0.2713 -3.3557,-1.7091 -3.3715,-3.2759 -0.079,-7.8182 9.8192,-12.195 16.4563,-16.7155 7.7063,-5.148 6.8062,-5.2362 24.6893,5.3853 15.1764,9.1462 20.7761,11.556 23.1061,10.4444 2.5109,-1.1191 4.9902,-9.2507 9.3439,-31.5679 7.5088,-37.1635 9.9889,-43.3675 30.8463,-76.4499 0,0 12.105,-13.7468 12.1753,-22.1809 0.021,-2.5231 -3.5294,-6.6944 -3.5294,-6.6944 -6.9009,-10.3297 -15.7899,-7.9986 -17.2286,-7.8494 -1.0817,0.1357 -13.9912,-0.1356 -17.5285,9.8591 -13.5239,8.3398 -21.576,2.1229 -20.9356,-0.9631 1.5791,-7.5347 14.9506,-15.1366 23.7686,-20.9465 5.4322,-3.5812 11.1354,-8.586 17.6391,-8.3649 25.1338,0.8546 46.6181,17.638 65.8183,36.8773 6.8851,7.0077 13.9439,13.6451 15.9289,14.8497 l 9.0655,6.7148 c 0,0 6.5534,0.3292 9.8061,0.7342 7.724,0.9617 22.3062,-3.7325 23.0023,4.0199 1.0508,11.7025 -23.2618,12.2727 -33.086,12.1566 -2.2952,-0.027 -4.9647,0.016 -7.2182,-0.6426 -2.8417,-0.8307 -7.3889,-4.0102 -7.3889,-4.0102 0,0 -6.1824,-8.9665 -10.8551,-8.8797 -1.1923,0.022 -2.6846,2.3671 -2.6846,2.3671 -3.7662,3.3574 -18.2139,24.0671 -21.4069,30.6916 -1.9582,4.2188 -2.3056,6.0026 -1.216,7.6507 0.7106,1.153 8.1334,5.304 16.4382,9.3687 27.9274,10.8466 42.8013,22.8124 57.4519,33.9343 14.4721,11.141 15.9092,4.6664 25.782,-0.3391 3.0399,-1.5328 5.7008,-1.3768 6.822,0.6104 4.8638,8.6064 -5.8587,15.9553 -12.9925,26.654 l -6.1271,0.407 -9.1915,-4.5036 c -25.4946,-14.9738 -49.5885,-27.8348 -64.1909,-31.0904 -8.6506,-1.9263 -25.0726,-13.2922 -37.282,-9.3963 -5.4729,1.7464 -5.3098,3.0667 -11.1835,13.113 -9.2656,16.16 -27.4838,45.4186 -28.7306,46.7703 -0.7106,0.6105 -8.2274,4.5986 -10.9356,2.9776"
         style="mix-blend-mode:normal;fill:#000000;fill-opacity:1;fill-rule:nonzero;stroke:none;stroke-width:10.3302"
         id="path1961-4-9-2-7"
         inkscape:connector-curvature="0"
         sodipodi:nodetypes="ccccaacccccacccsaacccaasacaccccccaccccaccc" /></g><path
       style="fill:#cccccc;fill-opacity:1;stroke:none;stroke-width:30.9565;stroke-linecap:round;stroke-miterlimit:1.9;stroke-dasharray:none;paint-order:markers fill stroke"
       d="m 4786.2685,1976.9484 c -50.2771,-7.9585 -88.945,-44.3192 -99.6726,-93.7256 -0.8283,-3.8147 -1.7247,-12.6782 -1.992,-19.6966 l -0.486,-12.7608 16.0776,16.003 c 22.4521,22.3478 29.0696,26.4131 44.8702,27.5647 18.7484,1.3666 34.0047,-3.6861 45.4687,-15.0586 3.2286,-3.2028 11.0021,-12.629 17.2746,-20.9472 11.9987,-15.9119 20.7209,-24.939 30.1069,-31.1588 11.8961,-7.8833 21.9725,-10.244 32.8541,-7.697 12.0795,2.8274 17.9451,6.6656 37.4126,24.4814 l 12.6084,11.5387 -0.5277,10.8703 c -2.5666,52.8695 -41.2116,97.6397 -94.3181,109.2677 -8.0786,1.7689 -31.8431,2.5588 -39.6767,1.3188 z"
       id="path8013" /><path
       style="fill:#000000;stroke:#000000;stroke-width:2.2715;stroke-linecap:round;stroke-miterlimit:4;stroke-dasharray:none;paint-order:markers fill stroke"
       d="m 4781.5579,1976.174 c -51.8007,-9.6494 -91.6148,-52.6549 -96.0919,-103.7939 l -0.821,-9.3795 9.4017,10.1743 c 27.3929,29.6446 38.0054,34.7749 66.7161,32.2532 19.1309,-1.6804 30.6506,-10.2582 50.3425,-37.4854 24.6666,-34.1057 45.0268,-45.0414 66.1616,-35.5363 9.0188,4.0564 15.6146,9.2607 31.1938,24.6134 l 11.999,11.8249 -1.3725,8.5243 c -2.1323,13.2445 -4.9834,22.9828 -9.6162,32.8439 -14.8515,31.6126 -43.8045,55.4174 -78.1151,64.2246 -13.3049,3.4154 -36.4528,4.2227 -49.798,1.7365 z"
       id="path3140-9-0-4-9-22" /></g></svg>
